<svg xmlns="http://www.w3.org/2000/svg" viewBox="0 0 16 16" width="16" height="16">
  <rect width="16" height="16" rx="3" fill="#3b82f6"/>
  <path d="M4 5.5c0-.276.224-.5.5-.5h1c.276 0 .5.224.5.5v5c0 .276-.224.5-.5.5h-1c-.276 0-.5-.224-.5-.5v-5z" fill="white"/>
  <path d="M6.5 7.5c0-.276.224-.5.5-.5h1c.276 0 .5.224.5.5v3c0 .276-.224.5-.5.5h-1c-.276 0-.5-.224-.5-.5v-3z" fill="white"/>
  <path d="M9 4.5c0-.276.224-.5.5-.5h1c.276 0 .5.224.5.5v6c0 .276-.224.5-.5.5h-1c-.276 0-.5-.224-.5-.5v-6z" fill="white"/>
  <path d="M11.5 6c0-.276.224-.5.5-.5h.5c.276 0 .5.224.5.5v4.5c0 .276-.224.5-.5.5H12c-.276 0-.5-.224-.5-.5V6z" fill="white"/>
</svg>
